PathFileType	4	(X/Y/Z)	 s02c0001.trc
DataRate	CameraRate	NumFrames	NumMarkers	Units	OrigDataRate	OrigDataStartFrame	OrigNumFrames
200	200	6	49	mm	200	501	2000
Frame#	Time	racr			lacr			c7			jug			rlel			rdr			llel			ldr			s2			lic			ric			lasi			rasi			rpsi			lpsi			rgt			lgt			rth1			rth2			rth3			rth4			rlfc			rmfc			rsh1			rsh2			rsh3			rsh4			rlmal			rmmal			rcal			rtoe			rmt5			rmt1			lth1			lth2			lth4			lth3			llfc			lmfc			lsh1			lsh2			lsh3			lsh4			llmal			lmmal			lcal			ltoe			lmt1			lmt5			
		X1	Y1	Z1	X2	Y2	Z2	X3	Y3	Z3	X4	Y4	Z4	X5	Y5	Z5	X6	Y6	Z6	X7	Y7	Z7	X8	Y8	Z8	X9	Y9	Z9	X10	Y10	Z10	X11	Y11	Z11	X12	Y12	Z12	X13	Y13	Z13	X14	Y14	Z14	X15	Y15	Z15	X16	Y16	Z16	X17	Y17	Z17	X18	Y18	Z18	X19	Y19	Z19	X20	Y20	Z20	X21	Y21	Z21	X22	Y22	Z22	X23	Y23	Z23	X24	Y24	Z24	X25	Y25	Z25	X26	Y26	Z26	X27	Y27	Z27	X28	Y28	Z28	X29	Y29	Z29	X30	Y30	Z30	X31	Y31	Z31	X32	Y32	Z32	X33	Y33	Z33	X34	Y34	Z34	X35	Y35	Z35	X36	Y36	Z36	X37	Y37	Z37	X38	Y38	Z38	X39	Y39	Z39	X40	Y40	Z40	X41	Y41	Z41	X42	Y42	Z42	X43	Y43	Z43	X44	Y44	Z44	X45	Y45	Z45	X46	Y46	Z46	X47	Y47	Z47	X48	Y48	Z48	X49	Y49	Z49	
501	2.5050	570.851739	1430.851537	566.237980	596.951822	1423.614874	162.828229	549.055094	1480.367454	358.849697	653.024160	1382.837479	366.497224	539.994034	1145.149673	636.170420	634.243665	1019.001215	779.201383	570.279983	1115.121828	128.650064	744.159046	1040.205356	23.196346	479.130130	974.259527	365.071241	637.848176	1017.722516	229.674962	604.964140	1020.487370	515.344355	683.795036	968.040542	261.260140	653.948520	971.294789	495.534639	488.979461	1000.413619	409.702181	500.441174	996.491315	325.163465	554.473046	886.586460	539.797197	570.148654	886.393056	206.217043	589.533611	802.019762	552.495692	607.120233	714.204328	549.731556	580.724998	632.949803	559.231269	640.316156	712.067012	531.656525	560.121278	499.170628	515.975615	563.331647	484.421592	411.686446	530.631807	397.898363	533.096660	544.502306	311.070545	517.493768	514.988185	230.140030	514.047497	564.684553	313.353158	483.694205	503.213330	101.252417	499.498043	515.158137	114.585314	421.631170	451.192113	53.638707	442.788425	726.979557	86.570162	498.835547	615.356742	48.269678	537.590804	657.247903	71.437799	436.110184	598.289599	759.999258	188.875566	608.014640	673.053263	195.123731	642.051782	670.280324	210.989972	571.160867	592.808388	204.120097	563.344566	495.212509	224.805811	559.802124	469.114786	322.773803	537.209111	399.686770	200.782492	555.439105	316.007096	215.651777	529.434381	229.191816	214.595403	575.229668	318.215522	250.879974	518.993603	114.238890	231.711699	541.855382	118.701610	309.830003	468.803802	58.379199	277.591756	751.513149	81.743870	249.400933	674.309579	70.384040	302.673656	646.791974	46.372319	196.228153	
502	2.5100	570.848532	1430.856131	566.213830	596.927898	1423.624027	162.809032	549.025527	1480.382365	358.853724	653.020210	1382.852437	366.483946	539.978702	1145.144509	636.153479	634.269877	1019.000657	779.178505	570.256145	1115.120154	128.647713	744.154344	1040.222422	23.185639	479.112742	974.263228	365.078628	637.839819	1017.712932	229.653523	604.977541	1020.490935	515.356937	683.781074	968.043292	261.250416	653.964097	971.310520	495.525955	488.990683	1000.409884	409.702983	500.439787	996.482109	325.169201	554.499849	886.580788	539.795562	570.112764	886.400951	206.229401	589.544237	802.022080	552.485487	607.126775	714.209173	549.722155	580.737269	632.955469	559.210049	640.324659	712.057121	531.628877	560.108729	499.194164	515.962858	563.332217	484.428705	411.687730	530.625576	397.902043	533.100386	544.506980	311.082209	517.515083	515.004421	230.139402	514.037470	564.693689	313.342167	483.692145	503.208325	101.249352	499.487498	516.205619	114.106054	421.399338	451.192815	53.660262	442.781929	726.975901	86.579534	498.828929	615.385001	48.233632	537.589075	657.248186	71.438703	436.111608	598.284766	760.007030	188.875636	608.012963	673.032699	195.118164	642.045789	670.293037	211.015765	571.144174	592.794347	204.117254	563.334836	495.213900	224.807961	559.814898	469.114840	322.767314	537.200204	399.690514	200.777152	555.439694	316.003906	215.633459	529.440623	229.185330	214.598230	575.206616	318.223999	250.866958	518.993920	114.232455	231.719906	541.868903	118.696986	309.819561	468.799048	58.390026	277.590735	751.479853	81.769813	249.413110	674.282727	70.372551	302.682580	646.776574	46.353068	196.230188	
503	2.5150	570.863849	1430.864863	566.222267	596.877769	1423.631938	162.804496	548.999388	1480.381967	358.844384	653.010025	1382.866823	366.455585	540.001068	1145.139081	636.142341	634.284595	1019.010493	779.140661	570.232460	1115.129510	128.652310	744.125553	1040.238172	23.175094	479.098484	974.265488	365.081741	637.837930	1017.703048	229.651547	604.966071	1020.482939	515.339015	683.766815	968.030321	261.238728	653.955438	971.313038	495.503664	488.974560	1000.406881	409.696614	500.424156	996.473623	325.171622	554.491799	886.593611	539.801858	570.103174	886.396860	206.223450	589.538733	802.025150	552.470771	607.118642	714.224562	549.718105	580.746417	632.947207	559.203510	640.339884	712.052882	531.612810	560.113586	499.186104	515.967014	563.327712	484.419239	411.672139	530.634796	397.912596	533.098764	544.509542	311.073437	517.490950	514.984375	230.138431	514.036472	564.679331	313.350246	483.685150	503.225751	101.251596	499.496583	515.148802	114.597487	421.628447	451.177602	53.651528	442.779221	726.981004	86.578466	498.845900	615.388347	48.255970	537.605901	657.237945	71.439109	436.100130	598.245957	760.000025	188.880565	607.986220	673.052533	195.118225	642.024042	670.289504	211.010242	571.124673	592.808518	204.128133	563.339258	495.210577	224.812737	559.800450	469.114055	322.771607	537.191119	399.689656	200.782343	555.434728	316.013941	215.647928	529.403331	229.205934	214.599538	575.212227	318.216474	250.856563	519.000858	114.225838	231.704655	541.870848	118.695119	309.819101	468.815577	58.373614	277.591996	751.507261	81.767903	249.413324	674.296430	70.385495	302.672244	646.784517	46.377478	196.226648	
504	2.5200	570.821911	1430.876240	566.194607	596.861860	1423.629330	162.793668	548.971268	1480.382589	358.835903	652.990195	1382.872202	366.444691	539.964320	1145.125415	636.094978	634.315430	1019.005831	779.109537	570.225669	1115.131073	128.634881	744.132899	1040.249964	23.133288	479.090174	974.252919	365.074037	637.813087	1017.708123	229.638672	604.964373	1020.486506	515.339696	683.744877	968.047984	261.223983	653.944730	971.317465	495.498562	488.959080	1000.407188	409.699587	500.411338	996.491235	325.159058	554.493837	886.588999	539.801474	570.078272	886.398801	206.204101	589.531145	802.027696	552.465309	607.121016	714.207952	549.702148	580.750341	632.956524	559.199602	640.338506	712.062968	531.604032	560.126207	499.182577	515.975527	563.359849	484.402956	411.666620	530.640120	397.904465	533.086502	544.511103	311.092709	517.510970	514.981995	230.121866	514.022975	564.691098	313.342875	483.694224	503.203575	101.248596	499.492121	516.195724	114.104020	421.391779	451.185940	53.639132	442.773968	726.958980	86.577984	498.843587	615.369336	48.258718	537.597266	657.243324	71.445953	436.088044	598.229514	760.000826	188.872683	607.982558	673.060306	195.112683	642.002881	670.286651	210.987508	571.107702	592.799040	204.106979	563.328128	495.206938	224.809204	559.815337	469.111237	322.764600	537.182963	399.685157	200.785251	555.438318	316.013747	215.646175	529.416564	229.203211	214.601277	575.205500	318.224709	250.874163	519.003914	114.235069	231.705339	541.855619	118.706235	309.824959	468.810560	58.377348	277.591222	751.508724	81.771576	249.394471	674.268882	70.379222	302.674509	646.751871	46.351570	196.250385	
505	2.5250	570.838920	1430.885014	566.196575	596.825782	1423.635912	162.775378	548.944104	1480.382721	358.827009	652.969993	1382.879333	366.420483	540.012417	1145.142558	636.108624	634.344473	1018.999279	779.096331	570.197338	1115.138042	128.631727	744.113660	1040.261436	23.132371	479.058868	974.261187	365.087078	637.802513	1017.707954	229.620854	604.959662	1020.494761	515.338096	683.728329	968.040897	261.210569	653.939544	971.338342	495.477291	488.936863	1000.407952	409.708631	500.384393	996.474982	325.162586	554.478423	886.594991	539.790099	570.052629	886.392249	206.220098	589.532886	802.038501	552.462056	607.128389	714.197519	549.690219	580.750200	632.959673	559.181711	640.324196	712.066973	531.607707	560.118666	499.203552	515.966772	563.324628	484.410304	411.674547	530.632404	397.903965	533.069970	544.499116	311.080727	517.500831	514.988005	230.124388	514.040487	564.674858	313.356711	483.676937	503.226117	101.251249	499.496591	516.209709	114.123102	421.407832	451.188342	53.655309	442.767202	726.980230	86.579027	498.815676	615.405710	48.291266	537.549888	657.244362	71.442162	436.118434	598.202506	760.008811	188.866910	607.950848	673.063394	195.087782	642.002044	670.292045	210.993992	571.115310	592.797287	204.112543	563.302703	495.209390	224.809681	559.780577	469.121288	322.785192	537.180366	399.696656	200.778088	555.424773	316.009000	215.652023	529.403404	229.212191	214.591867	575.207103	318.218926	250.867063	519.003856	114.232804	231.730043	541.846069	118.685110	309.830599	468.803853	58.370352	277.593107	751.507329	81.767898	249.413370	674.271226	70.367455	302.686494	646.785618	46.383726	196.233447	
506	2.5300	570.815593	1430.888755	566.176266	596.796060	1423.629350	162.767345	548.925293	1480.393584	358.805847	652.956736	1382.912297	366.407827	540.015384	1145.138825	636.080913	634.364734	1019.006127	779.062589	570.197601	1115.129833	128.617773	744.107635	1040.276450	23.095165	479.055787	974.257131	365.086009	637.801169	1017.710294	229.629273	604.949967	1020.490007	515.320192	683.734878	968.041795	261.200199	653.935839	971.327631	495.463539	488.924304	1000.409505	409.701198	500.308762	996.378126	325.136670	554.467059	886.587278	539.795427	570.026825	886.393955	206.204673	589.559275	802.035078	552.448336	607.133239	714.227823	549.684267	580.753345	632.952194	559.184218	640.342457	712.077042	531.597241	560.121737	499.198512	515.960657	563.324133	484.411044	411.657234	530.648343	397.906643	533.081535	544.501755	311.070065	517.496255	514.997030	230.116133	514.021590	564.656779	313.355019	483.682231	503.237913	101.236331	499.490226	516.174654	114.117946	421.397969	451.185993	53.639081	442.773990	726.958508	86.577081	498.843285	615.391372	48.286592	537.565427	657.255028	71.440032	436.097820	598.188206	759.996677	188.855763	607.943089	673.075977	195.076259	641.986771	670.304576	210.971393	571.081399	592.824266	204.099467	563.298189	495.223919	224.813049	559.797270	469.122311	322.768627	537.155192	399.701965	200.782889	555.413429	316.011638	215.647326	529.401762	229.206568	214.607019	575.203640	318.223811	250.869194	519.002404	114.238730	231.718306	541.855336	118.701672	309.830159	468.790828	58.376438	277.587629	751.495615	81.777202	249.412663	674.274594	70.379402	302.669383	646.776729	46.360429	196.246962	
